<svg width="8" height="24" viewBox="0 0 8 24" fill="none" xmlns="http://www.w3.org/2000/svg">
<path d="M2.52633 24C2.13042 24 1.74005 23.907 1.38671 23.7284C1.03336 23.5498 0.726942 23.2906 0.492157 22.9718C0.257373 22.6531 0.100799 22.2836 0.0350651 21.8931C-0.0306687 21.5027 -0.0037219 21.1023 0.113732 20.7242L1.35161 16.7453C1.41805 16.532 1.5665 16.3538 1.7643 16.25C1.9621 16.1462 2.19305 16.1252 2.40634 16.1916C2.61962 16.258 2.79778 16.4065 2.90161 16.6043C3.00545 16.8021 3.02646 17.033 2.96001 17.2463L1.72213 21.2253C1.66402 21.4363 1.69032 21.6616 1.79548 21.8535C1.90063 22.0454 2.07636 22.1889 2.28546 22.2535C2.49455 22.3181 2.72058 22.2987 2.91566 22.1995C3.11073 22.1004 3.25953 21.9291 3.33054 21.7221L6.27787 12.2484C6.32784 12.0866 6.32784 11.9134 6.27787 11.7516L3.33054 2.27794C3.25953 2.07093 3.11073 1.8997 2.91566 1.80051C2.72058 1.70133 2.49455 1.68198 2.28546 1.74657C2.07636 1.81116 1.90063 1.95461 1.79548 2.14654C1.69032 2.33847 1.66402 2.56379 1.72213 2.77478L4.51368 11.7516C4.56365 11.9134 4.56365 12.0866 4.51368 12.2484L4.14316 13.4484C4.11026 13.5541 4.05688 13.6521 3.98607 13.7371C3.91526 13.8221 3.82841 13.8923 3.73047 13.9437C3.63253 13.9951 3.52542 14.0268 3.41526 14.0368C3.3051 14.0468 3.19404 14.035 3.08843 14.0021C2.98282 13.9692 2.88473 13.9158 2.79975 13.845C2.71477 13.7742 2.64457 13.6874 2.59315 13.5894C2.54174 13.4915 2.51012 13.3844 2.5001 13.2742C2.49008 13.1641 2.50186 13.053 2.53476 12.9474L2.82949 12L0.113732 3.27583C-0.0850384 2.63596 -0.0214834 1.94334 0.290415 1.35033C0.602314 0.757323 1.13701 0.312505 1.77687 0.113733C2.41673 -0.0850392 3.10935 -0.0214837 3.70235 0.290418C4.29535 0.60232 4.74017 1.13702 4.93894 1.77689L7.88627 11.2506C8.03791 11.7387 8.03791 12.2614 7.88627 12.7495L4.93894 22.2232C4.779 22.738 4.45857 23.1882 4.02449 23.5079C3.59041 23.8276 3.06544 24 2.52633 24Z" fill="#2BC390"/>
</svg>
