<svg width="8" height="24" viewBox="0 0 8 24" fill="none" xmlns="http://www.w3.org/2000/svg">
<path d="M5.47367 24C5.86958 24 6.25995 23.907 6.61329 23.7284C6.96664 23.5498 7.27306 23.2906 7.50784 22.9718C7.74263 22.6531 7.8992 22.2836 7.96493 21.8931C8.03067 21.5027 8.00372 21.1023 7.88627 20.7242L6.64839 16.7453C6.58195 16.532 6.4335 16.3538 6.2357 16.25C6.0379 16.1462 5.80695 16.1252 5.59366 16.1916C5.38038 16.258 5.20222 16.4065 5.09839 16.6043C4.99455 16.8021 4.97354 17.033 5.03999 17.2463L6.27787 21.2253C6.33598 21.4363 6.30968 21.6616 6.20452 21.8535C6.09937 22.0454 5.92364 22.1889 5.71454 22.2535C5.50545 22.3181 5.27942 22.2987 5.08434 22.1995C4.88927 22.1004 4.74047 21.9291 4.66946 21.7221L1.72213 12.2484C1.67216 12.0866 1.67216 11.9134 1.72213 11.7516L4.66946 2.27794C4.74047 2.07093 4.88927 1.8997 5.08434 1.80051C5.27942 1.70133 5.50545 1.68198 5.71454 1.74657C5.92364 1.81116 6.09937 1.95461 6.20452 2.14654C6.30968 2.33847 6.33598 2.56379 6.27787 2.77478L3.48632 11.7516C3.43635 11.9134 3.43635 12.0866 3.48632 12.2484L3.85684 13.4484C3.88974 13.5541 3.94312 13.6521 4.01393 13.7371C4.08474 13.8221 4.17159 13.8923 4.26953 13.9437C4.36747 13.9951 4.47458 14.0268 4.58474 14.0368C4.6949 14.0468 4.80596 14.035 4.91157 14.0021C5.01718 13.9692 5.11527 13.9158 5.20025 13.845C5.28523 13.7742 5.35543 13.6874 5.40685 13.5894C5.45826 13.4915 5.48988 13.3844 5.4999 13.2742C5.50992 13.1641 5.49814 13.053 5.46524 12.9474L5.17051 12L7.88627 3.27583C8.08504 2.63596 8.02148 1.94334 7.70958 1.35033C7.39769 0.757323 6.86299 0.312505 6.22313 0.113733C5.58327 -0.0850392 4.89065 -0.0214837 4.29765 0.290418C3.70465 0.60232 3.25983 1.13702 3.06106 1.77689L0.11373 11.2506C-0.0379104 11.7387 -0.0379104 12.2614 0.11373 12.7495L3.06106 22.2232C3.221 22.738 3.54143 23.1882 3.97551 23.5079C4.40959 23.8276 4.93456 24 5.47367 24Z" fill="#2BC390"/>
</svg>
