<svg width="96" height="28" viewBox="0 0 96 28" fill="none" xmlns="http://www.w3.org/2000/svg">
<path fill-rule="evenodd" clip-rule="evenodd" d="M17.4433 6.53196L10.8869 17.7902C10.6405 18.2124 10.4512 18.7265 10.4366 19.2372C10.3336 22.8235 19.1032 24.0185 27.2937 20.5891C17.2429 27.6764 2.59774 24.7689 6.34974 17.247L13.6544 4.46108C15.1518 1.87164 18.6888 4.3838 17.4433 6.53196ZM23.9315 16.1763C22.9269 15.5625 21.5795 15.8683 20.9881 16.8875L20.5155 17.7028C19.9253 18.722 20.2221 20.0324 21.2267 20.6462C22.2313 21.26 23.5809 20.952 24.1701 19.935L24.6427 19.1196C25.2318 18.1027 24.9361 16.79 23.9315 16.1763ZM20.3486 10.0723C19.344 9.45852 18.019 9.77884 17.4053 10.7835L13.3542 17.4139C12.7405 18.4185 13.0597 19.7435 14.0654 20.3561C15.0701 20.971 16.395 20.6496 17.0088 19.646L21.0598 13.0156C21.6736 12.0121 21.3544 10.6872 20.3486 10.0723Z" fill="white"/>
<path fill-rule="evenodd" clip-rule="evenodd" d="M39.4693 11.4248V12.5235C38.9126 12.7318 38.3661 12.836 37.8318 12.836C36.9515 12.836 36.2504 12.575 35.7274 12.0542C35.2043 11.5323 34.9434 10.8345 34.9434 9.95757C34.9434 9.08061 35.1976 8.35933 35.7072 7.81949C36.2157 7.27741 36.8854 7.00637 37.7176 7.00637C38.0054 7.00637 38.2664 7.03325 38.496 7.08813C38.7256 7.14413 39.0112 7.24717 39.3494 7.39725V8.58445C38.7861 8.22605 38.2653 8.04573 37.7848 8.04573C37.3043 8.04573 36.8709 8.22045 36.5506 8.57325C36.2291 8.92605 36.069 9.37629 36.069 9.92061C36.069 10.4963 36.2426 10.9532 36.5909 11.2915C36.9392 11.6297 37.4085 11.7988 37.9987 11.7988C38.4266 11.7988 38.9182 11.6734 39.4715 11.4259L39.4693 11.4248ZM42.1875 4.75293C42.3712 4.75293 42.528 4.81565 42.659 4.94221C42.789 5.06765 42.855 5.22221 42.855 5.40589C42.855 5.58957 42.7878 5.74189 42.659 5.87069C42.528 6.00173 42.3712 6.06669 42.1875 6.06669C42.0162 6.06669 41.8661 5.99949 41.7373 5.86845C41.6062 5.73517 41.5413 5.58061 41.5413 5.40589C41.5413 5.23117 41.6062 5.08445 41.7373 4.95117C41.8672 4.82013 42.0173 4.75293 42.1875 4.75293ZM41.6387 7.11837H42.7509V12.7396H41.6387V7.11837ZM44.4466 8.00877L46.5365 5.95581V7.11725H48.3162V8.11853H46.5365V10.8737C46.5365 11.5177 46.803 11.8392 47.3373 11.8392C47.736 11.8392 48.1571 11.7059 48.6018 11.4371V12.4753C48.1739 12.715 47.7069 12.836 47.2018 12.836C46.6966 12.836 46.2688 12.6881 45.9317 12.3902C45.8253 12.3006 45.7379 12.2009 45.6685 12.0878C45.6002 11.9747 45.5408 11.8291 45.4938 11.6476C45.4478 11.4662 45.4254 11.1224 45.4254 10.6105V8.11853H44.4477V8.00765L44.4466 8.00877ZM55.0731 10.0259H51.1184C51.1475 10.5635 51.3267 10.9913 51.6605 11.3083C51.992 11.6275 52.4198 11.7854 52.9451 11.7854C53.6798 11.7854 54.3552 11.558 54.9746 11.1011V12.1875C54.633 12.4171 54.2925 12.5795 53.9565 12.678C53.6205 12.7755 53.2262 12.8236 52.7738 12.8236C52.1544 12.8236 51.6538 12.6948 51.2718 12.4372C50.8877 12.1808 50.5819 11.8369 50.3523 11.4024C50.1205 10.9689 50.0062 10.466 50.0062 9.89597C50.0062 9.04029 50.2482 8.34365 50.7342 7.80829C51.2181 7.27181 51.8475 7.00525 52.6214 7.00525C53.3954 7.00525 53.9621 7.26621 54.4045 7.78701C54.8491 8.30893 55.072 9.00669 55.072 9.88365V10.0236L55.0731 10.0259ZM51.143 9.36061H53.971C53.9442 8.91597 53.8109 8.57437 53.5746 8.33469C53.3394 8.09277 53.0202 7.97405 52.6214 7.97405C52.2227 7.97405 51.8957 8.09277 51.6414 8.33469C51.3872 8.57437 51.2203 8.91709 51.143 9.36061ZM60.4043 7.11837H61.6094L59.1275 12.8371H58.7546L56.2144 7.11837H57.4307L58.945 10.5769L60.4054 7.11837H60.4043ZM67.8658 10.0259H63.911C63.9402 10.5635 64.1194 10.9913 64.4531 11.3083C64.7846 11.6275 65.2125 11.7854 65.7378 11.7854C66.4725 11.7854 67.1478 11.558 67.7672 11.1011V12.1875C67.4256 12.4171 67.0851 12.5795 66.7491 12.678C66.4131 12.7755 66.0189 12.8236 65.5664 12.8236C64.947 12.8236 64.4464 12.6948 64.0645 12.4372C63.6803 12.1808 63.3746 11.8369 63.145 11.4024C62.9131 10.9689 62.7989 10.466 62.7989 9.89597C62.7989 9.04029 63.0408 8.34365 63.5269 7.80829C64.0107 7.27181 64.6413 7.00525 65.4141 7.00525C66.1869 7.00525 66.7558 7.26621 67.1971 7.78701C67.6418 8.30893 67.8646 9.00669 67.8646 9.88365V10.0236L67.8658 10.0259ZM63.9368 9.36061H66.7648C66.7379 8.91597 66.6046 8.57437 66.3683 8.33469C66.1331 8.09277 65.8139 7.97405 65.4152 7.97405C65.0165 7.97405 64.6894 8.09277 64.4352 8.33469C64.181 8.57437 64.0141 8.91709 63.9368 9.36061Z" fill="white"/>
<path fill-rule="evenodd" clip-rule="evenodd" d="M35.7677 20.0219H34.9479V19.6321H37.0389V20.0219H36.2191V23.2094H35.7677V20.0219ZM38.4524 19.6321H40.1178V20.0219H38.9037V21.1598H40.0618V21.5496H38.9037V22.8208H40.185V23.2105H38.4524V19.6332V19.6321ZM43.8631 23.1377C43.7533 23.1713 43.6447 23.1982 43.5349 23.2172C43.4252 23.2363 43.3176 23.2452 43.2124 23.2452C42.929 23.2452 42.686 23.196 42.4821 23.0963C42.2783 22.9977 42.1125 22.8633 41.9826 22.6942C41.8527 22.5251 41.7575 22.3302 41.6959 22.1096C41.6343 21.8889 41.604 21.6582 41.604 21.4152C41.604 21.1352 41.6421 20.8832 41.7194 20.6592C41.7967 20.4352 41.9042 20.2448 42.0442 20.088C42.1842 19.9312 42.3522 19.8091 42.546 19.724C42.7408 19.6388 42.9548 19.5963 43.1866 19.5963C43.3165 19.5963 43.4408 19.6075 43.5607 19.6299C43.6805 19.6523 43.7813 19.6836 43.8631 19.7251V20.1664C43.6749 20.0465 43.4509 19.9872 43.1922 19.9872C43.0455 19.9872 42.9044 20.0163 42.7688 20.0745C42.6344 20.1328 42.5146 20.2179 42.4127 20.331C42.3108 20.4441 42.2279 20.583 42.1663 20.7488C42.1047 20.9145 42.0744 21.1072 42.0744 21.3256C42.0744 21.5574 42.098 21.768 42.1439 21.9561C42.1898 22.1443 42.2604 22.3044 42.3567 22.4377C42.4519 22.571 42.5717 22.674 42.7151 22.748C42.8584 22.8219 43.0276 22.8577 43.2224 22.8577C43.3389 22.8577 43.4509 22.8432 43.5607 22.814C43.6704 22.7849 43.7712 22.7435 43.8631 22.6886V23.14V23.1377ZM45.43 19.6321H45.9888L47.3362 22.5844H47.3463V19.6321H47.7764V23.2094H47.2175L45.8701 20.2784H45.86V23.2094H45.43V19.6321ZM49.8159 21.4566C49.8159 21.638 49.8304 21.8139 49.8596 21.9841C49.8887 22.1555 49.9368 22.3067 50.0029 22.4377C50.069 22.5688 50.1552 22.6752 50.2616 22.7558C50.368 22.8364 50.4957 22.8756 50.6458 22.8756C50.7623 22.8756 50.8732 22.8499 50.9784 22.7984C51.0848 22.7468 51.1778 22.6628 51.2573 22.5441C51.338 22.4265 51.4007 22.2731 51.4466 22.0827C51.4925 21.8934 51.516 21.6604 51.516 21.3827C51.516 21.2012 51.5015 21.0254 51.4724 20.8552C51.4432 20.6838 51.3951 20.5326 51.329 20.4016C51.2629 20.2705 51.1767 20.1641 51.0703 20.0835C50.9639 20.0028 50.8362 19.9625 50.6861 19.9625C50.5663 19.9625 50.4543 19.9883 50.3501 20.0398C50.246 20.0913 50.1541 20.1753 50.0735 20.294C49.9928 20.4116 49.9301 20.5662 49.8842 20.7555C49.8383 20.9448 49.8148 21.1788 49.8148 21.4555L49.8159 21.4566ZM49.3455 21.4566C49.3455 20.8384 49.4631 20.3736 49.6994 20.0622C49.9357 19.7508 50.265 19.5963 50.6884 19.5963C50.8866 19.5963 51.0658 19.6377 51.226 19.7195C51.3861 19.8012 51.5228 19.92 51.6359 20.0756C51.749 20.2313 51.8364 20.4195 51.8968 20.639C51.9584 20.8596 51.9887 21.1083 51.9887 21.3849C51.9887 22.0032 51.8711 22.468 51.6348 22.7793C51.3996 23.0907 51.0692 23.2452 50.6458 23.2452C50.4476 23.2452 50.2684 23.2038 50.1082 23.122C49.948 23.0403 49.8114 22.9216 49.6983 22.7659C49.5852 22.6102 49.4989 22.422 49.4373 22.2025C49.3757 21.9819 49.3455 21.7332 49.3455 21.4566ZM53.5567 19.6321H54.008V22.8196H55.1818V23.2094H53.5578V19.6321H53.5567ZM56.892 21.4566C56.892 21.638 56.9066 21.8139 56.9357 21.9841C56.9648 22.1555 57.013 22.3067 57.0791 22.4377C57.1452 22.5688 57.2314 22.6752 57.3378 22.7558C57.4442 22.8364 57.5719 22.8756 57.722 22.8756C57.8384 22.8756 57.9493 22.8499 58.0546 22.7984C58.161 22.7468 58.254 22.6628 58.3335 22.5441C58.4141 22.4265 58.4768 22.2731 58.5228 22.0827C58.5687 21.8934 58.5922 21.6604 58.5922 21.3827C58.5922 21.2012 58.5776 21.0254 58.5485 20.8552C58.5194 20.6838 58.4712 20.5326 58.4052 20.4016C58.3391 20.2705 58.2528 20.1641 58.1464 20.0835C58.04 20.0028 57.9124 19.9625 57.7623 19.9625C57.6424 19.9625 57.5304 19.9883 57.4263 20.0398C57.3221 20.0913 57.2303 20.1753 57.1496 20.294C57.069 20.4116 57.0063 20.5662 56.9604 20.7555C56.9144 20.9448 56.8909 21.1788 56.8909 21.4555L56.892 21.4566ZM56.4205 21.4566C56.4205 20.8384 56.5381 20.3736 56.7744 20.0622C57.0096 19.7508 57.34 19.5963 57.7634 19.5963C57.9616 19.5963 58.1408 19.6377 58.301 19.7195C58.4612 19.8012 58.5978 19.92 58.7109 20.0756C58.824 20.2313 58.9103 20.4195 58.9719 20.639C59.0335 20.8596 59.0637 21.1083 59.0637 21.3849C59.0637 22.0032 58.9461 22.468 58.7098 22.7793C58.4746 23.0907 58.1442 23.2452 57.7208 23.2452C57.5226 23.2452 57.3434 23.2038 57.1832 23.122C57.0231 23.0403 56.8864 22.9216 56.7733 22.7659C56.6602 22.6102 56.574 22.422 56.5124 22.2025C56.4508 21.9819 56.4205 21.7332 56.4205 21.4566ZM62.9804 23.0604C62.9288 23.0806 62.8684 23.1019 62.7989 23.122C62.7284 23.1422 62.6556 23.1624 62.5783 23.1814C62.501 23.2004 62.4215 23.215 62.3375 23.2273C62.2535 23.2396 62.1728 23.2452 62.0944 23.2452C61.8111 23.2452 61.568 23.196 61.3642 23.0963C61.1604 22.9977 60.9946 22.8633 60.8647 22.6942C60.7348 22.5251 60.6396 22.3302 60.578 22.1096C60.5164 21.8889 60.4861 21.6582 60.4861 21.4152C60.4861 21.1352 60.5242 20.8832 60.6015 20.6592C60.6788 20.4352 60.7863 20.2448 60.9263 20.088C61.0663 19.9312 61.2343 19.8091 61.428 19.724C61.6229 19.6388 61.8368 19.5963 62.0687 19.5963C62.2221 19.5963 62.37 19.6086 62.5122 19.6321C62.6544 19.6556 62.7866 19.6971 62.9098 19.7553V20.2067C62.7732 20.1384 62.632 20.0846 62.4864 20.0454C62.3408 20.0062 62.2042 19.986 62.0743 19.986C61.9276 19.986 61.7864 20.0152 61.6509 20.0734C61.5165 20.1316 61.3967 20.2168 61.2948 20.3299C61.1928 20.443 61.11 20.5819 61.0484 20.7476C60.9868 20.9134 60.9565 21.106 60.9565 21.3244C60.9565 21.5563 60.98 21.7668 61.026 21.955C61.0719 22.1432 61.1424 22.3033 61.2388 22.4366C61.334 22.5699 61.4538 22.6729 61.5972 22.7468C61.7405 22.8208 61.9096 22.8566 62.1045 22.8566C62.1762 22.8566 62.2535 22.8476 62.3375 22.8308C62.4215 22.814 62.492 22.7894 62.5503 22.7592V21.6313H61.9511V21.2416H62.9815V23.0604H62.9804ZM64.6962 19.6321H65.1476V23.2094H64.6962V19.6321ZM68.493 21.8867L67.9442 20.1036H67.9341L67.3708 21.8867H68.493ZM68.2007 19.6321L69.3688 23.2094H68.8973L68.6106 22.2764H67.2476L66.9608 23.2094H66.5095L67.709 19.6321H68.2007ZM73.4266 20.0219H72.6068V19.6321H74.6978V20.0219H73.878V23.2094H73.4266V20.0219ZM76.1112 19.6321H77.7767V20.0219H76.5626V21.1598H77.7207V21.5496H76.5626V22.8208H77.8439V23.2105H76.1112V19.6332V19.6321ZM76.7116 18.7148H77.1013L77.6143 19.4574H77.2245L76.9064 18.9915L76.5884 19.4574H76.1986L76.7116 18.7148ZM80.1343 21.3188L79.1756 19.6332H79.7087L80.4568 20.9504L81.1748 19.6332H81.672L80.673 21.3244L81.7392 23.2105H81.2061L80.3661 21.7198L79.562 23.2105H79.049L80.1354 21.32L80.1343 21.3188ZM83.6074 20.0219H82.7876V19.6321H84.8786V20.0219H84.0588V23.2094H83.6074V20.0219ZM86.292 19.6321H86.7434V23.2094H86.292V19.6321ZM88.4592 19.6321H88.9106V22.8196H90.0844V23.2094H88.4592V19.6321Z" fill="white"/>
<path d="M90.1515 16.1045H34.9434V16.3162H90.1515V16.1045Z" fill="white"/>
</svg>
