<svg width="31" height="26" viewBox="0 0 31 26" fill="none" xmlns="http://www.w3.org/2000/svg">
<path d="M30.5384 21.878C30.3298 21.496 30.0216 21.1621 29.6342 20.9191L15.7756 12.2227V10.9934C15.7753 10.9511 15.7956 10.9129 15.826 10.8859C15.9499 10.875 16.114 10.8553 16.3069 10.8175C16.7023 10.7392 17.2218 10.5952 17.7434 10.2586C18.5086 9.761 19.1428 9.0834 19.5876 8.28243C20.0322 7.48151 20.286 6.55547 20.2857 5.57862C20.2862 4.04158 19.6594 2.63992 18.6519 1.63335C17.6458 0.625941 16.2442 0 14.7076 0C13.5559 0 12.4767 0.351395 11.5876 0.953045C10.698 1.55458 9.99251 2.40413 9.56794 3.40666C9.33824 3.94978 9.59272 4.57657 10.1358 4.80645C10.6791 5.03597 11.3061 4.78216 11.5356 4.2391C11.7961 3.62262 12.2342 3.09487 12.784 2.72358C13.3343 2.35242 13.9911 2.1364 14.7076 2.1364C15.6608 2.1364 16.5148 2.51974 17.1412 3.14477C17.7657 3.77065 18.1488 4.62467 18.1491 5.57862C18.1488 6.18696 17.9936 6.75076 17.7196 7.24524C17.4455 7.73888 17.0518 8.16007 16.5794 8.46693C16.3953 8.58976 16.1213 8.67975 15.8999 8.7211C15.7897 8.74226 15.694 8.75353 15.6317 8.75847C15.6002 8.7616 15.5775 8.76299 15.5656 8.76341H15.5593L15.4144 8.76522L15.2722 8.80753C14.3039 9.09419 13.6393 9.98329 13.6391 10.9935V12.2556L1.11976 20.9893L1.12 20.9885C0.404798 21.4874 -0.000662197 22.296 8.1184e-07 23.1347C8.1184e-07 23.3966 0.0396608 23.6616 0.120608 23.9185C0.463203 25.0092 1.47339 25.7503 2.61587 25.7503H28.244C29.4103 25.7503 30.4351 24.9786 30.7579 23.8578V23.8573C30.8261 23.6184 30.8601 23.3749 30.8601 23.1347C30.8601 22.6915 30.7473 22.2604 30.5384 21.878ZM28.7048 23.2679V23.2674C28.6458 23.4721 28.4576 23.6143 28.2441 23.6143H2.61587C2.40642 23.6143 2.2212 23.4775 2.1587 23.2787C2.14315 23.2301 2.13646 23.1819 2.13646 23.1347C2.13688 22.9808 2.21023 22.8323 2.34139 22.7414H2.34187L14.7387 14.0941L28.4987 22.7284C28.5713 22.7743 28.6254 22.8337 28.6643 22.9039C28.703 22.974 28.7239 23.0537 28.7239 23.1347C28.7239 23.1784 28.7176 23.222 28.7048 23.2679Z" fill="#2BC390"/>
</svg>
