<svg width="64" height="64" viewBox="0 0 64 64" fill="none" xmlns="http://www.w3.org/2000/svg">
<g clip-path="url(#clip0_113_118)">
<path d="M16.2199 55.186H14.2588V58.9775H16.2199V55.186Z" fill="#808184"/>
<path d="M3.93845 56.1011C3.13595 56.1014 2.4832 55.4486 2.4832 54.6461V51.6922C2.4832 50.8897 3.13595 50.237 3.93845 50.237C5.8507 50.237 7.4062 48.6814 7.4062 46.7692V43.3231H5.3937V46.7692C5.3937 47.5717 4.74083 48.2245 3.93833 48.2245C2.0262 48.2245 0.470703 49.7801 0.470703 51.6921V54.646C0.470703 56.5581 2.02633 58.1136 3.93833 58.1136H9.3537V56.1011H3.93845Z" fill="#808184"/>
<path d="M59.0768 49.2091H37.9075C36.8336 49.2091 35.9599 48.3354 35.9599 47.2616C35.9599 46.1877 36.8336 45.314 37.9075 45.314H45.7844C47.9679 45.314 49.7444 43.5376 49.7444 41.354C49.7444 39.1704 47.9679 37.3939 45.7844 37.3939H27.5691C26.2238 37.3939 25.1293 36.2992 25.1293 34.954C25.1293 33.6087 26.2239 32.5141 27.5691 32.5141H32.4923C34.9471 32.5141 36.9446 30.5168 36.9446 28.0618C36.9446 26.7164 38.0393 25.6219 39.3845 25.6219H46.2768C48.7318 25.6219 50.7291 23.6245 50.7291 21.1695C50.7291 18.7144 48.7318 16.7171 46.2768 16.7171H18.2154V18.7296H46.2769C47.6223 18.7296 48.7168 19.8243 48.7168 21.1695C48.7168 22.515 47.6221 23.6094 46.2769 23.6094H39.3846C36.9298 23.6094 34.9323 25.6068 34.9323 28.0618C34.9323 29.4071 33.8376 30.5016 32.4924 30.5016H27.5693C25.1144 30.5016 23.1169 32.499 23.1169 34.954C23.1169 37.409 25.1143 39.4064 27.5693 39.4064H45.7846C46.8585 39.4064 47.7323 40.2801 47.7323 41.354C47.7323 42.4279 46.8585 43.3015 45.7846 43.3015H37.9078C35.7243 43.3015 33.9478 45.078 33.9478 47.2616C33.9478 49.4452 35.7243 51.2216 37.9078 51.2216H59.077C60.4224 51.2216 61.5169 52.3162 61.5169 53.6615C61.5169 55.0067 60.4223 56.1014 59.077 56.1014H20.1844V53.1871C20.1844 52.0914 19.293 51.1999 18.1973 51.1999C18.1875 51.1999 18.1795 51.1921 18.1793 51.1825L16.3445 1.04163C16.3216 0.457625 15.846 0 15.2614 0C14.6769 0 14.2011 0.457625 14.1781 1.04412L12.3436 51.1825C12.3434 51.1921 12.3353 51.2 12.3256 51.2C11.2299 51.2 10.3384 52.0914 10.3384 53.1872V59.0769C10.3384 61.7915 12.547 64 15.2615 64C17.976 64 20.1846 61.7915 20.1846 59.0769V58.1139H59.077C61.532 58.1139 63.5294 56.1165 63.5294 53.6615C63.5294 51.2065 61.5318 49.2091 59.0768 49.2091ZM18.2153 56.1014H17.2308V58.1139H18.2153V59.0768C18.2153 60.7055 16.8901 62.0306 15.2614 62.0306C13.6326 62.0306 12.3075 60.7055 12.3075 59.0768V53.1871C12.3075 53.1772 12.3156 53.1691 12.3255 53.1691C13.3998 53.1691 14.2721 52.3283 14.3115 51.2545L15.2614 25.294L16.2114 51.2546C16.2509 52.3281 17.1233 53.1691 18.1974 53.1691C18.2071 53.1691 18.2153 53.1772 18.2153 53.1871V56.1014Z" fill="#808184"/>
<path d="M9.35381 10.8524H12.3077V8.84H9.35381C6.62731 8.84 4.40918 11.0581 4.40918 13.7846C4.40918 16.5111 6.62731 18.7292 9.35381 18.7292H12.3077V16.7169H9.35381C7.73706 16.7169 6.42156 15.4015 6.42156 13.7846C6.42156 12.1677 7.73706 10.8524 9.35381 10.8524Z" fill="#808184"/>
<path d="M59.5211 4.90149H29.0464C27.4058 4.90149 26.0709 6.23624 26.0709 7.87686C26.0709 8.40799 25.6389 8.83986 25.1081 8.83986H18.2158V10.8524H25.1081C26.7486 10.8522 28.0833 9.51749 28.0833 7.87686C28.0833 7.34574 28.5154 6.91386 29.0463 6.91386H59.5212C60.6217 6.91386 61.5171 7.80924 61.5171 8.90961C61.5171 10.01 60.6216 10.9054 59.5212 10.9054H53.6137C51.9996 10.9054 50.6864 12.2185 50.6864 13.8326C50.6864 15.4467 51.9996 16.7599 53.6137 16.7599H56.6157V14.7475H53.6137C53.1093 14.7475 52.6989 14.3371 52.6989 13.8327C52.6989 13.3284 53.1093 12.9179 53.6137 12.9179H59.5212C61.7314 12.9179 63.5294 11.1197 63.5294 8.90961C63.5294 6.69961 61.7313 4.90149 59.5211 4.90149Z" fill="#808184"/>
</g>
<defs>
<clipPath id="clip0_113_118">
<rect width="64" height="64" fill="white"/>
</clipPath>
</defs>
</svg>
