<svg width="46" height="16" viewBox="0 0 46 16" fill="none" xmlns="http://www.w3.org/2000/svg">
<path d="M25.2849 3.92302C25.2849 5.81556 23.6949 6.95404 22.0224 6.94665H20.6274V9.39365H18.5574L18.5799 0.862427H22.0374C23.7099 0.877212 25.2849 2.02309 25.2849 3.91563M23.2149 3.91563C23.2149 3.22071 22.7049 2.79932 22.0299 2.79932H20.6349V5.02454H22.0299C22.7049 5.02454 23.2224 4.61054 23.2224 3.91563" fill="white"/>
<path d="M29.0873 6.96899H28.0673V9.41599H25.9973L26.0198 0.884766H29.4773C31.1498 0.899551 32.7248 2.04542 32.7248 3.93797C32.7248 5.15037 32.0723 6.05968 31.1648 6.555L32.8298 9.43077H30.5123L29.0873 6.96899ZM28.0748 5.04688H29.4698C30.1448 5.04688 30.6623 4.63288 30.6623 3.93797C30.6623 3.24305 30.1523 2.82166 29.4773 2.82166H28.0823V5.04688H28.0748Z" fill="white"/>
<path d="M36.8949 6.99109H35.8749V9.43808H33.8049L33.8274 0.90686H37.2849C38.9574 0.921646 40.5324 2.06752 40.5324 3.96006C40.5324 5.17247 39.8799 6.08178 38.9724 6.57709L40.6374 9.45287H38.3199L36.8949 6.99109ZM35.8749 5.06897H37.2699C37.9449 5.06897 38.4624 4.65498 38.4624 3.96006C38.4624 3.26514 37.9524 2.84376 37.2774 2.84376H35.8824V5.06897H35.8749Z" fill="white"/>
<path d="M19.9148 11.0571C19.9148 11.3972 19.6523 11.582 19.3448 11.582H19.0523V12.0699H18.7823V10.5322H19.3448C19.6448 10.5322 19.9073 10.7244 19.9073 11.0571M19.6523 11.0571C19.6523 10.8723 19.5248 10.7836 19.3598 10.7836H19.0673V11.3306H19.3598C19.5323 11.3306 19.6523 11.2345 19.6598 11.0571" fill="white"/>
<path d="M20.2412 10.4451L20.2366 12.0715L20.5066 12.0723L20.5112 10.4459L20.2412 10.4451Z" fill="white"/>
<path d="M21.4747 10.9536C21.6622 10.9536 21.8122 11.0571 21.8722 11.1828L21.8872 10.9758H22.1422V12.0699H21.8872L21.8722 11.8629C21.8122 11.9886 21.6622 12.0921 21.4747 12.0921C21.1597 12.0921 20.9272 11.8334 20.9272 11.5229C20.9272 11.2124 21.1597 10.9536 21.4822 10.9536M21.5272 11.8407C21.7147 11.8407 21.8497 11.6929 21.8497 11.5229C21.8497 11.3528 21.7147 11.205 21.5272 11.205C21.3397 11.205 21.1972 11.3528 21.1972 11.5229C21.1972 11.6929 21.3322 11.8407 21.5272 11.8407Z" fill="white"/>
<path d="M23.6798 11.434V12.0846H23.4098V11.5597C23.4098 11.3009 23.3198 11.2196 23.1698 11.2196C22.9823 11.2196 22.8698 11.3601 22.8623 11.5375V12.0846H22.5923V10.9904H22.8473L22.8623 11.1531C22.9673 11.0496 23.1098 10.9683 23.2748 10.9683C23.5448 10.9683 23.6798 11.1383 23.6798 11.4414" fill="white"/>
<path d="M24.0624 11.5302C24.0624 11.2123 24.3174 10.9609 24.6624 10.9609C25.0074 10.9609 25.2549 11.2197 25.2474 11.5302C25.2399 11.8407 24.9999 12.0994 24.6549 12.0994C24.3099 12.0994 24.0549 11.8407 24.0624 11.5302ZM24.9849 11.5302C24.9849 11.3601 24.8499 11.2123 24.6624 11.2123C24.4749 11.2123 24.3324 11.3601 24.3324 11.5302C24.3324 11.7002 24.4674 11.8481 24.6624 11.8481C24.8574 11.8481 24.9849 11.7002 24.9849 11.5302Z" fill="white"/>
<path d="M27.1148 10.9683C27.3023 10.9683 27.4523 11.0718 27.5123 11.1975V10.4656H27.7898V12.092H27.5273L27.5123 11.885C27.4523 12.0107 27.3023 12.1142 27.1148 12.1142C26.7998 12.1142 26.5673 11.8554 26.5673 11.5449C26.5673 11.2344 26.7998 10.9757 27.1223 10.9757M27.1598 11.8554C27.3473 11.8554 27.4823 11.7076 27.4823 11.5375C27.4823 11.3675 27.3473 11.2196 27.1598 11.2196C26.9723 11.2196 26.8298 11.3675 26.8298 11.5375C26.8298 11.7076 26.9648 11.8554 27.1598 11.8554Z" fill="white"/>
<path d="M29.3198 11.6338H28.4798C28.4798 11.7668 28.5848 11.8851 28.7873 11.8851C28.9298 11.8851 29.0198 11.8112 29.0648 11.7373L29.3048 11.7668C29.2748 11.9147 29.0948 12.1291 28.7873 12.1291C28.4498 12.1291 28.2173 11.8703 28.2173 11.5525C28.2173 11.2346 28.4348 10.9906 28.7723 10.9906C29.1098 10.9906 29.3273 11.2641 29.3273 11.5746V11.6486L29.3198 11.6338ZM28.4798 11.4416H29.0498C29.0423 11.3233 28.9298 11.2124 28.7648 11.2124C28.5998 11.2124 28.4873 11.3159 28.4798 11.4416Z" fill="white"/>
<path d="M31.1423 11.6189H30.8648V12.0995H30.5948V10.5618H31.1798C31.4648 10.5618 31.7198 10.7688 31.7198 11.094C31.7198 11.3306 31.5848 11.5006 31.4048 11.5746L31.7348 12.1069H31.4273L31.1348 11.6263L31.1423 11.6189ZM30.8648 11.3676H31.1798C31.3298 11.3676 31.4573 11.2641 31.4573 11.094C31.4573 10.924 31.3298 10.8131 31.1798 10.8131H30.8648V11.3602V11.3676Z" fill="white"/>
<path d="M33.1599 11.6411H32.3199C32.3199 11.7742 32.4249 11.8924 32.6274 11.8924C32.7699 11.8924 32.8599 11.8185 32.9049 11.7446L33.1449 11.7742C33.1149 11.922 32.9349 12.1364 32.6274 12.1364C32.2899 12.1364 32.0574 11.8777 32.0574 11.5598C32.0574 11.2419 32.2749 10.9979 32.6124 10.9979C32.9499 10.9979 33.1674 11.2715 33.1674 11.582V11.6559L33.1599 11.6411ZM32.3199 11.4563H32.8899C32.8824 11.338 32.7699 11.2271 32.6049 11.2271C32.4399 11.2271 32.3274 11.3306 32.3199 11.4563Z" fill="white"/>
<path d="M34.1423 11.242C33.9773 11.242 33.8123 11.3676 33.8123 11.5598C33.8123 11.7521 33.9773 11.8777 34.1423 11.8777C34.2473 11.8777 34.3373 11.8408 34.4273 11.7594V12.0182C34.3523 12.0847 34.2398 12.1291 34.0973 12.1291C33.7673 12.1291 33.5273 11.8703 33.5273 11.5598C33.5273 11.2493 33.7673 10.9906 34.0973 10.9906C34.2398 10.9906 34.3523 11.0424 34.4273 11.1089V11.3602C34.3373 11.2789 34.2473 11.242 34.1423 11.242Z" fill="white"/>
<path d="M35.9349 11.0201V12.1142H35.6799L35.6649 11.9516C35.5599 12.0551 35.4174 12.1364 35.2524 12.1364C34.9824 12.1364 34.8474 11.9664 34.8474 11.6633V11.0127H35.1174V11.5376C35.1174 11.7963 35.2074 11.8776 35.3574 11.8776C35.5524 11.8776 35.6649 11.7298 35.6649 11.545V11.0127H35.9349V11.0201Z" fill="white"/>
<path d="M36.3774 11.0201H36.6324L36.6474 11.2271C36.7074 11.1014 36.8574 10.9979 37.0449 10.9979C37.3599 10.9979 37.5999 11.2567 37.5999 11.5672C37.5999 11.8777 37.3599 12.1364 37.0449 12.1364C36.8574 12.1364 36.7074 12.0329 36.6474 11.9072V12.6095H36.3699V11.0127L36.3774 11.0201ZM37.0074 11.8851C37.1949 11.8851 37.3299 11.7372 37.3299 11.5672C37.3299 11.3971 37.1949 11.2493 37.0074 11.2493C36.8199 11.2493 36.6849 11.3971 36.6849 11.5672C36.6849 11.7372 36.8124 11.8851 37.0074 11.8851Z" fill="white"/>
<path d="M39.0549 11.6559H38.2149C38.2149 11.7889 38.3199 11.9072 38.5224 11.9072C38.6649 11.9072 38.7549 11.8333 38.7999 11.7594L39.0399 11.7889C39.0099 11.9368 38.8299 12.1512 38.5224 12.1512C38.1849 12.1512 37.9524 11.8924 37.9524 11.5745C37.9524 11.2567 38.1699 11.0127 38.5074 11.0127C38.8449 11.0127 39.0624 11.2862 39.0624 11.5967V11.6706L39.0549 11.6559ZM38.2149 11.471H38.7849C38.7774 11.3528 38.6649 11.2419 38.4999 11.2419C38.3349 11.2419 38.2224 11.3454 38.2149 11.471Z" fill="white"/>
<path d="M40.0899 11.0571L40.0524 11.2863C40.0524 11.2863 39.9849 11.2567 39.9474 11.2567C39.8049 11.2567 39.7224 11.4046 39.7224 11.6338V12.1217H39.4524V11.0275H39.7074V11.1458C39.7899 11.0645 39.8724 11.0054 39.9624 11.0054C40.0224 11.0054 40.0674 11.0275 40.0974 11.0571" fill="white"/>
<path d="M40.9149 11.0127C41.1024 11.0127 41.2524 11.1162 41.3124 11.2419L41.3274 11.0349H41.5824V12.129H41.3274L41.3124 11.922C41.2524 12.0477 41.1024 12.1512 40.9149 12.1512C40.5999 12.1512 40.3674 11.8924 40.3674 11.5819C40.3674 11.2714 40.5999 11.0127 40.9224 11.0127M40.9599 11.8998C41.1474 11.8998 41.2824 11.752 41.2824 11.5819C41.2824 11.4119 41.1474 11.2641 40.9599 11.2641C40.7724 11.2641 40.6299 11.4119 40.6299 11.5819C40.6299 11.752 40.7649 11.8998 40.9599 11.8998Z" fill="white"/>
<path d="M42.2349 11.5819C42.2349 11.7742 42.3999 11.8998 42.5649 11.8998C42.6699 11.8998 42.7599 11.8629 42.8499 11.7815V12.0403C42.7899 12.0994 42.6999 12.1364 42.5874 12.1512L42.5349 12.2399C42.6699 12.2399 42.7599 12.2916 42.7599 12.3951C42.7599 12.6021 42.3999 12.5874 42.2874 12.5874L42.3399 12.4691C42.4899 12.4691 42.6174 12.4691 42.6174 12.3951C42.6174 12.3434 42.5574 12.336 42.4899 12.336H42.3399L42.4224 12.1438C42.1599 12.092 41.9724 11.8555 41.9724 11.5819C41.9724 11.2788 42.2124 11.0127 42.5424 11.0127C42.6849 11.0127 42.7974 11.0644 42.8724 11.131V11.3823C42.7824 11.301 42.6924 11.2641 42.5874 11.2641C42.4224 11.2641 42.2574 11.3897 42.2574 11.5819" fill="white"/>
<path d="M43.7648 11.02C43.9523 11.02 44.1023 11.1235 44.1623 11.2492L44.1773 11.0422H44.4323V12.1363H44.1773L44.1623 11.9293C44.1023 12.055 43.9523 12.1585 43.7648 12.1585C43.4498 12.1585 43.2173 11.8998 43.2173 11.5893C43.2173 11.2788 43.4498 11.02 43.7723 11.02M43.6148 10.4656C43.7798 10.4656 43.8473 10.6134 43.9748 10.6134C44.0498 10.6134 44.0948 10.5765 44.0948 10.4951L44.3198 10.5395C44.3048 10.6874 44.2223 10.8204 44.0348 10.8204C43.8698 10.8204 43.8023 10.6726 43.6748 10.6726C43.5998 10.6726 43.5548 10.7169 43.5548 10.7909L43.3298 10.7465C43.3448 10.5986 43.4273 10.4656 43.6148 10.4656ZM43.8173 11.9072C44.0048 11.9072 44.1398 11.7593 44.1398 11.5893C44.1398 11.4192 44.0048 11.2714 43.8173 11.2714C43.6298 11.2714 43.4873 11.4192 43.4873 11.5893C43.4873 11.7593 43.6223 11.9072 43.8173 11.9072Z" fill="white"/>
<path d="M44.8149 11.5893C44.8149 11.2714 45.0699 11.02 45.4149 11.02C45.7599 11.02 46.0074 11.2788 45.9999 11.5893C45.9924 11.8998 45.7524 12.1585 45.4074 12.1585C45.0624 12.1585 44.8074 11.8998 44.8149 11.5893ZM45.7374 11.5893C45.7374 11.4192 45.6024 11.2714 45.4149 11.2714C45.2274 11.2714 45.0849 11.4192 45.0849 11.5893C45.0849 11.7593 45.2199 11.9071 45.4149 11.9071C45.6099 11.9071 45.7374 11.7593 45.7374 11.5893Z" fill="white"/>
<path d="M19.9299 14.1398H19.0899C19.0899 14.2728 19.1949 14.3911 19.3974 14.3911C19.5399 14.3911 19.6299 14.3172 19.6749 14.2433L19.9149 14.2728C19.8849 14.4207 19.7049 14.6351 19.3974 14.6351C19.0599 14.6351 18.8274 14.3763 18.8274 14.0584C18.8274 13.7405 19.0449 13.4966 19.3824 13.4966C19.7199 13.4966 19.9374 13.7701 19.9374 14.0806V14.1545L19.9299 14.1398ZM19.0899 13.9549H19.6599C19.6524 13.8367 19.5399 13.7258 19.3749 13.7258C19.2099 13.7258 19.0974 13.8293 19.0899 13.9549Z" fill="white"/>
<path d="M21.7449 14.1325H21.4674V14.613H21.1974V13.0753H21.7824C22.0674 13.0753 22.3224 13.2823 22.3224 13.6076C22.3224 13.8442 22.1874 14.0142 22.0074 14.0881L22.3374 14.6204H22.0299L21.7374 14.1399L21.7449 14.1325ZM21.4749 13.8737H21.7899C21.9399 13.8737 22.0674 13.7702 22.0674 13.6002C22.0674 13.4302 21.9399 13.3193 21.7899 13.3193H21.4749V13.8663V13.8737Z" fill="white"/>
<path d="M23.7623 14.1546H22.9223C22.9223 14.2877 23.0273 14.406 23.2298 14.406C23.3723 14.406 23.4623 14.3321 23.5073 14.2581L23.7473 14.2877C23.7173 14.4356 23.5373 14.65 23.2298 14.65C22.8923 14.65 22.6598 14.3912 22.6598 14.0733C22.6598 13.7554 22.8773 13.5115 23.2148 13.5115C23.5523 13.5115 23.7698 13.785 23.7698 14.0955V14.1694L23.7623 14.1546ZM22.9223 13.9624H23.4923C23.4848 13.8441 23.3723 13.7333 23.2073 13.7333C23.0423 13.7333 22.9298 13.8368 22.9223 13.9624Z" fill="white"/>
<path d="M24.3772 14.2876C24.3922 14.3689 24.4747 14.4133 24.6097 14.4133C24.6997 14.4133 24.7822 14.3837 24.7822 14.3172C24.7822 14.2285 24.6997 14.2137 24.4747 14.1398C24.2872 14.0806 24.1447 13.9919 24.1447 13.8145C24.1447 13.6223 24.3472 13.4966 24.5572 13.4966C24.8347 13.4966 24.9997 13.6444 24.9997 13.8366H24.7297C24.7297 13.7553 24.6322 13.7184 24.5647 13.7184C24.4972 13.7184 24.4147 13.7479 24.4147 13.8145C24.4147 13.8884 24.4972 13.8958 24.7297 13.9771C24.9772 14.0584 25.0597 14.1841 25.0597 14.3172C25.0597 14.5242 24.8572 14.6351 24.6097 14.6351C24.3247 14.6351 24.1297 14.5168 24.1147 14.2802H24.3847H24.3772V14.2876Z" fill="white"/>
<path d="M25.4423 13.2305C25.4423 13.1566 25.5023 13.0901 25.5848 13.0901C25.6673 13.0901 25.7273 13.1492 25.7273 13.2305C25.7273 13.3119 25.6673 13.371 25.5848 13.371C25.5023 13.371 25.4423 13.3119 25.4423 13.2305ZM25.7048 14.6204H25.4348V13.5263H25.7048V14.6204Z" fill="white"/>
<path d="M26.1678 12.9954L26.1632 14.6218L26.4332 14.6226L26.4378 12.9962L26.1678 12.9954Z" fill="white"/>
<path d="M26.8824 13.2379C26.8824 13.1639 26.9424 13.0974 27.0249 13.0974C27.1074 13.0974 27.1674 13.1566 27.1674 13.2379C27.1674 13.3192 27.1074 13.3783 27.0249 13.3783C26.9424 13.3783 26.8824 13.3192 26.8824 13.2379ZM27.1524 14.6277H26.8824V13.5336H27.1524V14.6277Z" fill="white"/>
<path d="M28.6823 14.162H27.8423C27.8423 14.2951 27.9473 14.4134 28.1498 14.4134C28.2923 14.4134 28.3823 14.3395 28.4273 14.2655L28.6673 14.2951C28.6373 14.443 28.4573 14.6573 28.1498 14.6573C27.8123 14.6573 27.5798 14.3986 27.5798 14.0807C27.5798 13.7628 27.7973 13.5189 28.1348 13.5189C28.4723 13.5189 28.6898 13.7924 28.6898 14.1029V14.1768L28.6823 14.162ZM28.0073 13.3119H27.7673L28.0298 12.9718H28.2323L28.4948 13.3119H28.2548L28.1348 13.1197L28.0073 13.3119ZM27.8423 13.9772H28.4123C28.4048 13.8589 28.2923 13.748 28.1273 13.748C27.9623 13.748 27.8498 13.8515 27.8423 13.9772Z" fill="white"/>
<path d="M30.1673 13.9845V14.6351H29.8973V14.1102C29.8973 13.8515 29.8073 13.7702 29.6573 13.7702C29.4698 13.7702 29.3573 13.9106 29.3498 14.088V14.6351H29.0798V13.541H29.3348L29.3498 13.7036C29.4548 13.6001 29.5973 13.5188 29.7623 13.5188C30.0323 13.5188 30.1673 13.6888 30.1673 13.9919" fill="white"/>
<path d="M31.1648 13.7702C30.9998 13.7702 30.8348 13.8958 30.8348 14.088C30.8348 14.2803 30.9998 14.4059 31.1648 14.4059C31.2698 14.4059 31.3598 14.369 31.4498 14.2876V14.5464C31.3748 14.6129 31.2623 14.6573 31.1198 14.6573C30.7898 14.6573 30.5498 14.3985 30.5498 14.088C30.5498 13.7775 30.7898 13.5188 31.1198 13.5188C31.2623 13.5188 31.3748 13.5706 31.4498 13.6371V13.8884C31.3598 13.8071 31.2698 13.7702 31.1648 13.7702Z" fill="white"/>
<path d="M31.8398 13.2526C31.8398 13.1787 31.8998 13.1122 31.9823 13.1122C32.0648 13.1122 32.1248 13.1713 32.1248 13.2526C32.1248 13.334 32.0648 13.3931 31.9823 13.3931C31.8998 13.3931 31.8398 13.334 31.8398 13.2526ZM32.1098 14.6425H31.8398V13.5484H32.1098V14.6425Z" fill="white"/>
<path d="M33.0847 13.5262C33.2722 13.5262 33.4222 13.6297 33.4822 13.7554L33.4972 13.5484H33.7522V14.6426H33.4972L33.4822 14.4356C33.4222 14.5612 33.2722 14.6647 33.0847 14.6647C32.7697 14.6647 32.5372 14.406 32.5372 14.0955C32.5372 13.785 32.7697 13.5262 33.0922 13.5262M33.1372 14.4134C33.3247 14.4134 33.4597 14.2655 33.4597 14.0955C33.4597 13.9255 33.3247 13.7776 33.1372 13.7776C32.9497 13.7776 32.8072 13.9255 32.8072 14.0955C32.8072 14.2655 32.9422 14.4134 33.1372 14.4134Z" fill="white"/>
<path d="M3.64729 4.30011C3.99979 3.65694 5.31979 1.68308 8.39479 1.47609C8.01979 1.12863 7.56229 0.921631 6.93979 0.921631C6.69979 0.921631 6.42979 0.921631 6.13729 0.97338C5.84479 1.02513 5.55229 1.10645 5.28229 1.23213C5.12479 1.30606 4.97479 1.37998 4.81729 1.4687C4.77229 1.49827 4.72729 1.52784 4.67479 1.55741C3.58729 2.40757 3.43729 3.34645 3.63979 4.30751L3.64729 4.30011Z" fill="white"/>
<path d="M3.76737 3.71619C3.73737 2.91038 4.06737 2.26721 4.80237 1.69797L4.89987 1.63883C5.06487 1.54272 5.21487 1.46879 5.36487 1.40226C5.62737 1.28398 5.89737 1.19526 6.16737 1.16569C6.45237 1.12873 6.71487 1.12134 6.93237 1.12134C7.28487 1.12134 7.58487 1.19527 7.85487 1.33573C5.58987 1.65362 4.34487 2.93256 3.77487 3.73097L3.76737 3.71619Z" fill="white"/>
<path d="M15.7823 9.1569C15.7073 8.60984 15.5198 8.09974 15.2273 7.64878C15.1523 7.5305 15.0623 7.41961 14.9648 7.3235C14.4248 6.73208 13.6073 6.36984 12.8873 6.04455C12.7148 5.97063 12.5423 5.88931 12.3773 5.81538C11.5373 5.41617 10.6973 4.91347 10.2623 3.94502C10.1723 3.74542 10.0898 3.5532 9.99982 3.36099C9.72232 2.72522 9.45982 2.1338 9.14482 1.63848C8.89732 1.25406 8.52982 0.780927 7.94482 0.514789C8.13232 0.500003 8.29732 0.5 8.43982 0.5C8.77732 0.5 9.00982 0.529573 9.07732 0.536966C9.08482 0.536966 9.09982 0.536966 9.10732 0.536966C12.9848 0.891817 15.8948 4.07069 15.8873 7.92231C15.8873 8.3363 15.8498 8.7503 15.7823 9.14951V9.1569Z" fill="white"/>
<path d="M4.7273 14.354C2.3948 13.0677 0.924805 10.6207 0.924805 7.88535C0.924805 6.28112 1.4423 4.75822 2.4098 3.47927C2.6273 3.19835 2.8598 2.92482 3.1223 2.67346C3.0173 3.00614 2.9798 3.3536 3.0023 3.68627C3.0548 4.45511 3.3698 5.24614 3.6548 5.93366L3.7898 6.26633C3.9623 6.71729 4.1648 7.23478 4.2548 7.75967C4.3298 8.19584 4.3073 8.65419 4.2848 9.00165C4.2548 9.37128 4.2098 9.74092 4.1723 10.1032L4.1348 10.4432C4.0073 11.5595 3.9173 12.735 4.3448 13.7108C4.4048 13.8513 4.5323 14.0879 4.7423 14.354H4.7273Z" fill="white"/>
<path d="M12.685 13.8144C12.1225 13.8144 11.5975 13.4669 11.0875 12.7572C10.7725 12.321 10.5025 11.8405 10.24 11.3674C10.1725 11.2491 10.105 11.1308 10.0375 11.0051C9.59495 10.2215 8.91995 9.04607 8.01995 8.71339C7.77995 8.62468 7.50245 8.58032 7.17245 8.58032C6.45995 8.58032 5.69495 8.77254 4.96745 8.97214C4.89245 8.99432 4.81745 9.0091 4.74995 9.03128C4.71995 9.40092 4.67495 9.78534 4.62995 10.155C4.45745 11.5966 4.28495 13.0899 5.12495 14.1175C5.73245 14.8568 6.90245 15.3521 8.49245 15.4999C10.4575 15.4851 12.2425 14.7311 13.5925 13.5187C13.2924 13.7109 12.9925 13.8144 12.6925 13.8144H12.685Z" fill="white"/>
<path d="M8.49226 15.3003C6.99226 15.1598 5.85226 14.694 5.27476 13.9917C4.48726 13.0307 4.65226 11.5743 4.82476 10.1771C4.86226 9.84441 4.90726 9.50434 4.92976 9.17906L4.98976 9.16428C5.73226 8.96467 6.48226 8.77246 7.17226 8.77246C7.47226 8.77246 7.73476 8.80943 7.95226 8.89075C8.78476 9.20124 9.43726 10.3397 9.87226 11.0938L10.0748 11.456C10.3373 11.9292 10.6148 12.4171 10.9373 12.8606C11.4773 13.6073 12.0323 13.9769 12.6398 13.9991C11.4248 14.8197 9.98477 15.2707 8.49976 15.2929H8.49226V15.3003Z" fill="white"/>
<path d="M12.7298 13.3928C12.1298 13.3928 11.6198 12.7866 11.0723 11.8625C12.7748 10.9902 13.9298 9.34162 14.1548 7.46387C14.3723 7.6339 14.5448 7.81132 14.6798 8.01093C15.5498 9.32684 15.3473 11.0272 14.1248 12.5796L14.0198 12.7127C13.5473 13.1489 13.0973 13.3928 12.7373 13.3928H12.7298Z" fill="white"/>
</svg>
