<svg width="65" height="16" viewBox="0 0 65 16" fill="none" xmlns="http://www.w3.org/2000/svg">
<g clip-path="url(#clip0_908_1299)">
<path d="M25.6746 5.43512C25.6746 5.30313 25.7866 5.1908 25.9202 5.1908H27.946C29.0709 5.1908 29.9821 6.1063 29.9821 7.22493C29.9821 8.34357 29.0709 9.24971 27.946 9.24971L26.1763 9.2703V12.0683C26.1763 12.2003 26.0633 12.3126 25.9212 12.3126C25.7875 12.3126 25.6755 12.2003 25.6755 12.0683V5.43512H25.6746ZM27.9451 8.77136C28.7942 8.76107 29.4898 8.06929 29.4898 7.22493C29.4898 6.38057 28.7942 5.6888 27.9451 5.6888H26.1754V8.77136H27.9451Z" fill="white"/>
<path d="M53.3972 5.08875C54.2773 5.08875 55.085 5.39391 55.7091 5.87226C55.8221 5.96399 55.8428 6.13717 55.7505 6.22891C55.6686 6.3506 55.5048 6.3609 55.4032 6.27946C54.8506 5.85166 54.1549 5.58768 53.3981 5.58768C51.6077 5.58768 50.1759 6.98153 50.1759 8.7208C50.1759 10.4601 51.6077 11.8137 53.3981 11.8137C54.1549 11.8137 54.8515 11.5693 55.3825 11.1219C55.5058 11.0404 55.6686 11.061 55.7402 11.1827C55.8428 11.2745 55.8221 11.457 55.7091 11.5394C55.085 12.0168 54.2773 12.3126 53.3972 12.3126C51.3413 12.3126 49.6732 10.7053 49.6732 8.72173C49.6732 6.73815 51.3403 5.09998 53.3972 5.08968V5.08875Z" fill="white"/>
<path d="M61.7487 5.6888H59.5902C59.4565 5.6888 59.3445 5.5774 59.3445 5.43512C59.3445 5.30313 59.4565 5.1908 59.5902 5.1908H64.3985C64.5313 5.1908 64.6442 5.30313 64.6442 5.43512C64.6442 5.5774 64.5313 5.6888 64.3985 5.6888H62.24V12.0674C62.24 12.1993 62.1271 12.3117 61.9944 12.3117C61.8616 12.3117 61.7487 12.1993 61.7487 12.0674V5.6888Z" fill="white"/>
<path d="M16.8524 11.9157L19.154 8.77225L16.8524 5.62884C16.7601 5.5165 16.7809 5.35456 16.8938 5.28248C17.0058 5.19074 17.1696 5.21134 17.2412 5.32273L19.4609 8.35475L21.6805 5.32273C21.7728 5.21134 21.9159 5.19074 22.0288 5.28248C22.1409 5.35362 22.1719 5.5165 22.0797 5.62884L19.7677 8.77225L22.0797 11.9157C22.1719 12.0271 22.1409 12.1796 22.0288 12.2611C21.9771 12.291 21.9366 12.3116 21.8848 12.3116C21.8029 12.3116 21.7314 12.2714 21.6805 12.1993L19.4609 9.17757L17.2412 12.1993C17.1998 12.2704 17.1179 12.3116 17.0463 12.3116C16.9945 12.3116 16.9437 12.291 16.8929 12.2611C16.7799 12.1796 16.7592 12.0271 16.8515 11.9157H16.8524Z" fill="white"/>
<path d="M39.7675 0.5C35.6086 0.5 32.2255 3.86433 32.2255 8C32.2255 12.1357 35.6086 15.5 39.7675 15.5C40.4293 15.5 41.0863 15.4148 41.7198 15.2463C41.8403 15.2145 41.9128 15.0909 41.8808 14.9702C41.8488 14.8503 41.7245 14.7811 41.604 14.811C41.0082 14.9692 40.3907 15.0497 39.7684 15.0497C35.859 15.0497 32.6782 11.8867 32.6782 8C32.6782 4.11333 35.8581 0.950262 39.7675 0.950262C43.6769 0.950262 46.8586 4.11333 46.8586 8C46.8586 9.15421 46.5244 10.3552 45.8664 11.5703C45.4654 12.3098 45.0183 12.5981 44.2718 12.5981C43.9508 12.5981 43.4105 12.4708 43.4105 11.618V8.00094C43.4105 7.1519 43.1394 6.374 42.696 5.73746C42.6838 5.71967 42.6753 5.70376 42.6584 5.68971C42.4767 5.43697 42.2649 5.21231 42.0305 5.01385C42.0126 4.98858 41.9928 4.97454 41.9665 4.95862C41.7754 4.8051 41.572 4.67124 41.3546 4.55891C41.3461 4.55049 41.3339 4.54861 41.3245 4.54206C40.85 4.30336 40.3257 4.15826 39.7665 4.15826C39.1123 4.15826 38.507 4.35578 37.9752 4.67592L37.946 4.68341C37.9253 4.68903 37.9159 4.70869 37.8989 4.71992C37.5073 4.96892 37.1675 5.29094 36.8898 5.67193C36.871 5.69159 36.854 5.70656 36.8427 5.73184C36.6808 5.96306 36.5368 6.20831 36.4276 6.4751C36.4257 6.47791 36.4248 6.48072 36.4229 6.48352C36.2318 6.9497 36.1236 7.46174 36.1236 8.00187C36.1236 8.47928 36.2167 8.93141 36.3683 9.35359C36.3683 9.36576 36.3749 9.37512 36.3777 9.38729C36.6404 10.0987 37.0931 10.7063 37.6758 11.1397C37.6805 11.1443 37.6796 11.1528 37.6852 11.1565C37.69 11.1603 37.6965 11.1584 37.7022 11.1621C37.8763 11.2885 38.0627 11.3952 38.2566 11.4888C38.2585 11.4907 38.2585 11.4944 38.2604 11.4963C38.267 11.501 38.2745 11.4991 38.2811 11.5038C38.7358 11.7191 39.2356 11.8455 39.7656 11.8455C40.0264 11.8455 40.2777 11.808 40.5224 11.7528C40.5243 11.7528 40.5253 11.7547 40.5272 11.7547C40.5337 11.7547 40.5375 11.7481 40.5441 11.7472C41.0854 11.6218 41.5833 11.3756 42.006 11.0273C42.0098 11.0245 42.0126 11.0236 42.0164 11.0198C42.3985 10.7025 42.7195 10.3075 42.9568 9.85534V11.6189C42.9568 12.6739 43.6355 13.0493 44.2699 13.0493C45.1859 13.0493 45.7817 12.6711 46.2618 11.7856C46.9565 10.505 47.3086 9.2319 47.3086 8.00187C47.3086 3.8662 43.9254 0.501872 39.7656 0.501872L39.7675 0.5ZM41.4195 5.11214C41.492 5.15895 41.5626 5.20575 41.6313 5.25817V10.7418C41.5626 10.7942 41.492 10.8411 41.4195 10.8879V5.11214ZM40.9677 11.1387C40.8999 11.1677 40.8265 11.1846 40.7559 11.2089V4.79106C40.8256 4.8154 40.899 4.83132 40.9677 4.86127V11.1387ZM42.0832 5.68035C42.1594 5.76554 42.2272 5.85915 42.295 5.95276V10.0491C42.2272 10.1427 42.1594 10.2354 42.0832 10.3215V5.68129V5.68035ZM39.4964 11.3634L40.0433 10.6697C40.1196 10.5724 40.1026 10.431 40.0047 10.3533C39.9049 10.2775 39.7647 10.2934 39.6865 10.3917L38.9881 11.2782C38.9156 11.2585 38.8459 11.2323 38.7753 11.208L40.0433 9.59979C40.1196 9.50243 40.1026 9.36108 40.0047 9.28339C39.9049 9.20756 39.7647 9.22254 39.6865 9.32177L38.3461 11.0208C38.2839 10.9871 38.2228 10.9524 38.1625 10.915L40.0424 8.52983C40.1186 8.43248 40.1017 8.29113 40.0038 8.21343C39.904 8.13761 39.7637 8.15352 39.6856 8.25181L37.7973 10.6482C37.7436 10.6033 37.69 10.5574 37.6382 10.5087L39.6366 7.97379C39.7129 7.87643 39.696 7.73508 39.5981 7.65739C39.4992 7.58156 39.358 7.59654 39.2799 7.69577L37.3313 10.1661C37.2861 10.109 37.239 10.0547 37.1986 9.99482L38.5682 8.25743C38.6445 8.16007 38.6275 8.01872 38.5296 7.94103C38.4298 7.8652 38.2896 7.88112 38.2115 7.97941L36.9557 9.5717C36.9209 9.50243 36.8804 9.43784 36.8503 9.36576L37.4998 8.542C37.576 8.44465 37.5591 8.30329 37.4612 8.2256C37.3624 8.14977 37.2212 8.16569 37.143 8.26398L36.6865 8.84342C36.6319 8.61876 36.598 8.38754 36.5886 8.1479L39.9219 7.25955C40.0424 7.22772 40.1139 7.10416 40.0819 6.9834C40.0499 6.86358 39.9303 6.79337 39.8042 6.82426L36.6055 7.67611C36.6112 7.60965 36.6149 7.54318 36.6244 7.47766L39.9219 6.59866C40.0424 6.56684 40.1139 6.44327 40.0819 6.32252C40.0499 6.2027 39.9303 6.13342 39.8042 6.16338L36.7373 6.98059C36.758 6.91038 36.774 6.8383 36.7985 6.77091L39.9219 5.93872C40.0424 5.90689 40.1139 5.78332 40.0819 5.66257C40.0499 5.54275 39.9303 5.4716 39.8042 5.50343L37.0508 6.23733C37.0969 6.15776 37.143 6.08007 37.1948 6.00518L39.9219 5.27877C40.0424 5.24694 40.1139 5.12338 40.0819 5.00262C40.0499 4.8828 39.9303 4.81259 39.8042 4.84348L37.7464 5.39204C37.8716 5.28251 38.0015 5.18235 38.1409 5.09342L39.9153 4.62069C40.0461 4.62725 40.1751 4.63942 40.3012 4.66188V11.3316C40.1261 11.3634 39.9482 11.3896 39.7647 11.3896C39.6715 11.3896 39.5849 11.369 39.4936 11.3606L39.4964 11.3634ZM42.7468 9.18603V6.8149C42.8777 7.1856 42.9586 7.58156 42.9586 8.00094C42.9586 8.42031 42.8777 8.81628 42.7468 9.18697V9.18603Z" fill="white"/>
<path d="M2.688 5.6888H0.529504C0.395833 5.6888 0.283813 5.5774 0.283813 5.43512C0.283813 5.30313 0.395833 5.1908 0.529504 5.1908H5.33694C5.47061 5.1908 5.58263 5.30313 5.58263 5.43512C5.58263 5.5774 5.46966 5.6888 5.33694 5.6888H3.17938V12.0674C3.17938 12.1993 3.06642 12.3117 2.93369 12.3117C2.80096 12.3117 2.688 12.1993 2.688 12.0674V5.6888Z" fill="white"/>
<path d="M9.08447 5.43512C9.08447 5.30313 9.19649 5.1908 9.33016 5.1908H13.0136C13.1567 5.1908 13.2593 5.30313 13.2593 5.43512C13.2593 5.5774 13.1567 5.6888 13.0136 5.6888H9.58621V8.50738H12.5834C12.7171 8.50738 12.8291 8.61878 12.8291 8.76107C12.8291 8.89305 12.7162 9.00539 12.5834 9.00539H9.58621V11.8137H13.0136C13.1567 11.8137 13.2593 11.9251 13.2593 12.0674C13.2593 12.1993 13.1567 12.3117 13.0136 12.3117H9.30945C9.18708 12.3014 9.08447 12.1993 9.08447 12.0674V5.43512Z" fill="white"/>
</g>
<defs>
<clipPath id="clip0_908_1299">
<rect width="64.3605" height="15" fill="white" transform="translate(0.564331 0.5)"/>
</clipPath>
</defs>
</svg>
